<?xml version="1.0" encoding="UTF-8"?>
<svg version="1.1" xmlns="http://www.w3.org/2000/svg" width="2082" height="1668">
<path d="M0 0 C0.9075 0.68320313 1.815 1.36640625 2.75 2.0703125 C34.01998141 26.54651818 55.01735823 60.98576457 64.8125 99.25 C65.00739014 100.00442383 65.20228027 100.75884766 65.40307617 101.53613281 C68.41876466 114.01356056 69.36785418 126.56973343 69.3125 139.375 C69.30976578 140.38714569 69.30976578 140.38714569 69.30697632 141.41973877 C69.25930928 151.93660892 68.62184901 161.78970995 66 172 C65.76651855 172.9895166 65.76651855 172.9895166 65.52832031 173.99902344 C61.16077663 192.34968102 52.70689826 209.26285959 41 224 C40.26007813 224.93714844 39.52015625 225.87429688 38.7578125 226.83984375 C36.53965514 229.5908325 34.28129072 232.30116855 32 235 C31.5654248 235.5141748 31.13084961 236.02834961 30.68310547 236.55810547 C28.81954303 238.76194183 26.95473469 240.9646993 25.08618164 243.16430664 C22.18725407 246.58037577 19.32844443 250.02505399 16.5 253.5 C12.75379155 258.10248466 8.93477213 262.63722411 5.09033203 267.1574707 C2.14041096 270.63243023 -0.75664406 274.14453073 -3.625 277.6875 C-7.90977625 282.95099312 -12.38049028 288.02799758 -17 293 C-17.53882813 293.5878125 -18.07765625 294.175625 -18.6328125 294.78125 C-20 296 -20 296 -22 296 C-22.00146656 295.16107271 -22.00293312 294.32214542 -22.00444412 293.4577961 C-22.04162001 272.97225905 -22.1007766 252.48688603 -22.18390274 232.00148201 C-22.22358227 222.09457276 -22.25603077 212.18774168 -22.27099609 202.28076172 C-22.2840704 193.63810559 -22.31118104 184.99562224 -22.35461307 176.35306346 C-22.37709887 171.78387977 -22.3929185 167.21490814 -22.39188385 162.64566422 C-22.39112953 158.32977296 -22.4093844 154.01434818 -22.44116783 149.69857788 C-22.44956701 148.12907928 -22.45148626 146.55952772 -22.44580269 144.99001694 C-22.40133862 130.8025706 -24.10959826 116.00801982 -30.625 103.1875 C-30.96418457 102.49720703 -31.30336914 101.80691406 -31.65283203 101.09570312 C-41.55713778 81.72529567 -58.31719143 67.71658216 -79 61 C-97.88619776 55.1643771 -118.65995585 58.02986945 -136.22265625 66.56640625 C-155.38255346 77.22178135 -169.26318849 93.50765356 -175.4375 114.5625 C-177.17797118 121.18877819 -178.1242831 127.3905593 -178.14044189 134.25080872 C-178.14341302 134.95856231 -178.14638414 135.6663159 -178.1494453 136.39551657 C-178.15808289 138.75563324 -178.15963638 141.11569889 -178.16113281 143.47583008 C-178.16576476 145.17324938 -178.17078993 146.87066765 -178.17617798 148.56808472 C-178.18927413 153.17409549 -178.19574236 157.7800917 -178.20018864 162.38611817 C-178.20312595 165.27046734 -178.20723216 168.15481259 -178.21169281 171.03915977 C-178.22536502 180.08244775 -178.23503108 189.1257267 -178.2388947 198.16902429 C-178.24336451 208.57167468 -178.26086338 218.97419296 -178.2898953 229.37680322 C-178.31160589 237.43912163 -178.32160408 245.50140315 -178.32293582 253.56375045 C-178.32397784 258.36811676 -178.32975511 263.17235885 -178.34775543 267.97669411 C-178.36439736 272.50675359 -178.36631461 277.03659768 -178.35761642 281.56667709 C-178.35685439 283.21564377 -178.3610765 284.8646228 -178.37107468 286.51355934 C-178.53014515 314.41947214 -170.92831481 338.83884675 -151.49169922 359.49951172 C-133.37926369 377.71866537 -107.52422789 387.02816377 -82.1875 387.3125 C-56.20306902 387.21551603 -33.87905513 376.55280428 -15.375 358.625 C-11.44960263 354.60216369 -7.89682419 350.33645665 -4.3828125 345.953125 C-1.80463834 342.75787965 0.8382415 339.62551483 3.5 336.5 C6.87325331 332.53132961 10.21177703 328.53981679 13.5 324.5 C17.24787798 319.8954642 21.06983444 315.35980809 24.9140625 310.8359375 C28.55859407 306.53986956 32.1278734 302.18631659 35.68359375 297.81640625 C38.27787266 294.66214808 40.91606265 291.5479702 43.5625 288.4375 C46.76739191 284.66911061 49.92687694 280.87753972 53 277 C56.52883403 272.54746299 60.18229329 268.21314021 63.86328125 263.88671875 C66.78004513 260.45428391 69.65693426 256.99407185 72.5 253.5 C76.24787798 248.8954642 80.06983444 244.35980809 83.9140625 239.8359375 C86.81244823 236.4194046 89.671551 232.97495162 92.5 229.5 C95.7882374 225.46016548 99.12731461 221.46916723 102.5 217.5 C107.40545844 211.72457456 112.22028665 205.88007901 117 200 C122.23918408 193.55467282 127.53539575 187.16577088 132.91357422 180.83642578 C135.81219839 177.41979268 138.67140579 173.97513003 141.5 170.5 C145.24787798 165.8954642 149.06983444 161.35980809 152.9140625 156.8359375 C156.55859407 152.53986956 160.1278734 148.18631659 163.68359375 143.81640625 C166.27787266 140.66214808 168.91606265 137.5479702 171.5625 134.4375 C174.76739191 130.66911061 177.92687694 126.87753972 181 123 C184.52883403 118.54746299 188.18229329 114.21314021 191.86328125 109.88671875 C194.78004513 106.45428391 197.65693426 102.99407185 200.5 99.5 C204.24787798 94.8954642 208.06983444 90.35980809 211.9140625 85.8359375 C215.56280785 81.53490247 219.13644727 77.17653903 222.6953125 72.80078125 C225.22033075 69.73224213 227.79484769 66.70960188 230.375 63.6875 C234.15793072 59.25147717 237.80519362 54.73389584 241.375 50.125 C246.86843961 43.04511861 252.70781044 36.29364003 258.62695312 29.56835938 C259.73693212 28.30048863 260.83181184 27.01940881 261.921875 25.734375 C274.65074074 10.73699854 289.10401604 -1.1806373 306.0625 -11.125 C306.8477002 -11.58664551 307.63290039 -12.04829102 308.44189453 -12.52392578 C311.90764341 -14.49386011 315.129634 -16.1621463 318.99609375 -17.1796875 C319.98738281 -17.45039063 320.97867188 -17.72109375 322 -18 C322.33 -18.66 322.66 -19.32 323 -20 C326.64150532 -21.57570077 330.46950275 -22.67805912 334.25 -23.875 C335.372854 -24.23215088 336.49570801 -24.58930176 337.65258789 -24.95727539 C382.03216142 -38.6797213 429.28816931 -35.06482128 470.625 -13.75 C498.84049466 1.19654533 521.72944756 23.59855088 538 51 C538.34659668 51.58330078 538.69319336 52.16660156 539.05029297 52.76757812 C561.39301403 91.00941728 566.23236465 138.08908398 555.46484375 180.6953125 C547.79927387 209.23545587 532.7659682 233.43777209 513.36230469 255.43603516 C511.33198253 257.7669032 509.38438979 260.16179782 507.4375 262.5625 C504.17221697 266.58358091 500.85442156 270.55345162 497.5 274.5 C494.12716411 278.46903543 490.78823355 282.46017021 487.5 286.5 C483.75212202 291.1045358 479.93016556 295.64019191 476.0859375 300.1640625 C472.43719215 304.46509753 468.86355273 308.82346097 465.3046875 313.19921875 C462.77966925 316.26775787 460.20515231 319.29039812 457.625 322.3125 C453.84207508 326.74851603 450.19467263 331.26600643 446.625 335.875 C442.16948329 341.62027155 437.48856595 347.13095441 432.70019531 352.60058594 C428.78368043 357.07760385 424.98672933 361.63542937 421.2421875 366.2578125 C418.69746317 369.37000148 416.10381775 372.43726497 413.5 375.5 C410.12711398 379.46899152 406.78823226 383.4601718 403.5 387.5 C400.2117626 391.53983452 396.87268539 395.53083277 393.5 399.5 C389.34717114 404.38931946 385.24962186 409.31881052 381.203125 414.296875 C379.66028506 416.18986301 378.10732226 418.07462479 376.546875 419.953125 C375.34804687 421.39945313 375.34804687 421.39945313 374.125 422.875 C373.40570312 423.73867188 372.68640625 424.60234375 371.9453125 425.4921875 C370.07484386 427.90351454 368.50959336 430.3510909 367 433 C367.83402344 433.95519531 368.66804688 434.91039062 369.52734375 435.89453125 C375.37213031 442.60392089 381.15608526 449.34285983 386.7578125 456.2578125 C389.30253683 459.37000148 391.89618225 462.43726497 394.5 465.5 C398.62113948 470.34948722 402.66991612 475.25161123 406.6875 480.1875 C409.26146392 483.31799666 411.87569086 486.41172461 414.5 489.5 C418.62101634 494.34959381 422.66991354 499.25160806 426.6875 504.1875 C429.26146545 507.31799851 431.87576903 510.41165634 434.5 513.5 C440.14857944 520.15033651 445.66823508 526.90121006 451.171875 533.671875 C455.69411815 539.22044283 460.27883279 544.70914795 464.91357422 550.16357422 C468.55954932 554.46111625 472.1297728 558.81657801 475.6875 563.1875 C478.26146392 566.31799666 480.87569086 569.41172461 483.5 572.5 C487.62101634 577.34959381 491.66991354 582.25160806 495.6875 587.1875 C498.26146746 590.31800096 500.87587283 593.41156585 503.5 596.5 C507.59422616 601.32329626 511.65446157 606.16999696 515.6328125 611.08984375 C517.33745669 613.18548719 519.05900875 615.25574891 520.8046875 617.31640625 C552.51164238 655.19510715 563.24903758 700.7122546 559.76855469 749.22607422 C559.22791284 754.58377766 558.27295758 759.7716024 557 765 C556.75056641 766.08788818 556.75056641 766.08788818 556.49609375 767.19775391 C551.19195545 789.92205753 540.89708533 811.30998576 527 830 C526.34902344 830.8765625 525.69804688 831.753125 525.02734375 832.65625 C514.03039799 846.72556018 500.95543548 859.24074219 486 869 C485.09217773 869.59433838 485.09217773 869.59433838 484.16601562 870.20068359 C456.24002894 888.22199647 424.8510542 897.22157478 391.6875 897.25 C390.97824371 897.25067474 390.26898743 897.25134949 389.53823853 897.25204468 C377.80158183 897.23436625 366.48784656 896.51761262 355 894 C353.82920898 893.75056641 353.82920898 893.75056641 352.63476562 893.49609375 C311.62059996 884.48565866 278.21739559 860.10704118 252.26953125 827.80078125 C249.77153312 824.71805378 247.20342649 821.70281775 244.625 818.6875 C240.841702 814.25181844 237.19465685 809.73397318 233.625 805.125 C229.16948329 799.37972845 224.48856595 793.86904559 219.70019531 788.39941406 C215.78368043 783.92239615 211.98672933 779.36457063 208.2421875 774.7421875 C205.69746317 771.62999852 203.10381775 768.56273503 200.5 765.5 C196.37582498 760.64694075 192.32334196 755.74186707 188.3046875 750.80078125 C185.77966925 747.73224213 183.20515231 744.70960188 180.625 741.6875 C176.84207308 737.25148163 173.19471357 732.73396449 169.625 728.125 C164.18409982 721.11026943 158.39483922 714.42546572 152.53662109 707.75830078 C150.00203931 704.85806914 147.5004135 701.92969296 145 699 C138.30531096 706.6673332 131.65014087 714.34762831 125.2421875 722.2578125 C122.69746317 725.37000148 120.10381775 728.43726497 117.5 731.5 C114.12711398 735.46899152 110.78823226 739.4601718 107.5 743.5 C103.75212202 748.1045358 99.93016556 752.64019191 96.0859375 757.1640625 C93.18755177 760.5805954 90.328449 764.02504838 87.5 767.5 C83.75212202 772.1045358 79.93016556 776.64019191 76.0859375 781.1640625 C73.18755177 784.5805954 70.328449 788.02504838 67.5 791.5 C63.75212202 796.1045358 59.93016556 800.64019191 56.0859375 805.1640625 C53.18755177 808.5805954 50.328449 812.02504838 47.5 815.5 C43.75481451 820.10122789 39.93837873 824.63612101 36.0925293 829.15307617 C33.11012713 832.66329088 30.19803386 836.22172379 27.3125 839.8125 C4.26433265 868.00061263 -29.0574053 885.57359295 -64 894 C-64.72461426 894.17934082 -65.44922852 894.35868164 -66.19580078 894.54345703 C-89.65027323 900.06312372 -117.79005236 899.06507442 -141 893 C-141.83305664 892.79101074 -142.66611328 892.58202148 -143.52441406 892.36669922 C-168.46061676 885.9819983 -191.7559751 874.20119764 -211 857 C-211.98226562 856.13761719 -212.96453125 855.27523437 -213.9765625 854.38671875 C-226.20910289 843.52003219 -235.88360705 831.53517885 -245 818 C-245.58652344 817.15050781 -246.17304687 816.30101562 -246.77734375 815.42578125 C-258.61722663 797.15759631 -264.81941545 775.01889543 -268.59863281 753.82495117 C-268.94077628 751.9145705 -268.94077628 751.9145705 -270 750 C-272.44468247 748.84606229 -274.87907311 747.78085877 -277.375 746.75 C-310.38016024 732.66452913 -337.01150046 706.79422852 -350.84448242 673.46948242 C-364.69919247 638.55441776 -364.25742557 600.22438995 -349.65625 565.62109375 C-342.61540329 550.22754446 -333.65880961 537.35424737 -322 525 C-321.32710937 524.26265625 -320.65421875 523.5253125 -319.9609375 522.765625 C-297.28928534 498.82028452 -263.33824331 484.71271851 -230.5390625 483.796875 C-204.37989595 483.44861511 -179.92490194 487.9492916 -157 501 C-156.32984863 501.37640625 -155.65969727 501.7528125 -154.96923828 502.140625 C-145.38976044 507.59254504 -137.24751166 513.81631923 -129.43896484 521.58447266 C-128.11986362 522.88208868 -126.75895692 524.13684756 -125.39453125 525.38671875 C-100.45022576 548.7447409 -88.4528571 583.08427084 -86.71484375 616.59375 C-85.56585641 653.68028092 -99.53715429 688.29878146 -124.47216797 715.38623047 C-138.37437355 730.07040734 -155.96089799 741.9754926 -175 749 C-170.58657136 762.93179088 -164.32952902 773.4898848 -154 784 C-153.07960938 784.93972656 -153.07960938 784.93972656 -152.140625 785.8984375 C-137.01672458 800.18212123 -116.74968758 805.52894688 -96.41015625 805.2109375 C-75.39454893 804.4745048 -56.65633156 794.56817098 -42.32421875 779.58984375 C-39.21324579 776.12333102 -36.25642603 772.5552135 -33.34765625 768.91796875 C-30.78417436 765.73174417 -28.15156443 762.61282568 -25.5 759.5 C-22.12669662 755.53137352 -18.78822167 751.53981519 -15.5 747.5 C-11.75212202 742.8954642 -7.93016556 738.35980809 -4.0859375 733.8359375 C-0.43719215 729.53490247 3.13644727 725.17653903 6.6953125 720.80078125 C9.22033075 717.73224213 11.79484769 714.70960188 14.375 711.6875 C18.15792492 707.25148397 21.80532737 702.73399357 25.375 698.125 C29.83051671 692.37972845 34.51143405 686.86904559 39.29980469 681.39941406 C43.21631957 676.92239615 47.01327067 672.36457063 50.7578125 667.7421875 C53.30253683 664.62999852 55.89618225 661.56273503 58.5 658.5 C62.62417502 653.64694075 66.67665804 648.74186707 70.6953125 643.80078125 C73.22033075 640.73224213 75.79484769 637.70960188 78.375 634.6875 C82.15792492 630.25148397 85.80532737 625.73399357 89.375 621.125 C93.83051671 615.37972845 98.51143405 609.86904559 103.29980469 604.39941406 C107.21631957 599.92239615 111.01327067 595.36457063 114.7578125 590.7421875 C117.30254033 587.62999423 119.89633613 584.56287017 122.5 581.5 C129.86675065 572.82314989 137.06695527 564.02856307 144 555 C147.76381862 556.50721148 149.58463482 558.64916931 152.0625 561.8125 C152.85011719 562.8025 153.63773438 563.7925 154.44921875 564.8125 C155.07256104 565.59753906 155.07256104 565.59753906 155.70849609 566.3984375 C157.87439353 569.08431409 160.12987889 571.69286002 162.375 574.3125 C166.15881585 578.74772028 169.8053643 583.26605412 173.375 587.875 C177.83051671 593.62027155 182.51143405 599.13095441 187.29980469 604.60058594 C191.21631957 609.07760385 195.01327067 613.63542937 198.7578125 618.2578125 C201.30253683 621.37000148 203.89618225 624.43726497 206.5 627.5 C210.62113948 632.34948722 214.66991612 637.25161123 218.6875 642.1875 C221.26146594 645.31799912 223.87579466 648.4116341 226.5 651.5 C230.55012599 656.2691121 234.54352113 661.07912432 238.49609375 665.9296875 C246.30791948 675.50861889 254.15972837 685.05229952 262.16748047 694.46826172 C265.73028404 698.66328182 269.21325575 702.91914278 272.6875 707.1875 C275.26146392 710.31799666 277.87569086 713.41172461 280.5 716.5 C284.62101634 721.34959381 288.66991354 726.25160806 292.6875 731.1875 C295.26146545 734.31799851 297.87576903 737.41165634 300.5 740.5 C306.14857944 747.15033651 311.66823508 753.90121006 317.171875 760.671875 C319.43988329 763.45460858 321.71839222 766.2284076 324 769 C324.43602539 769.53447754 324.87205078 770.06895508 325.32128906 770.61962891 C339.42172655 787.87186994 356.23987709 801.48132964 378.984375 804.75 C401.39733303 806.60806906 422.61473587 802.42306289 440.1953125 787.5625 C440.79085937 787.046875 441.38640625 786.53125 442 786 C442.99 785.278125 443.98 784.55625 445 783.8125 C458.39750584 772.34482879 466.67499518 752.81569946 468.22314453 735.50488281 C469.74058902 709.96044117 461.42017701 690.21106518 445 671 C444.49887695 670.40944824 443.99775391 669.81889648 443.48144531 669.21044922 C440.94985907 666.23064507 438.40291031 663.26473601 435.84375 660.30859375 C433.30572842 657.36934082 430.82834995 654.38553682 428.375 651.375 C427.66988281 650.51003906 426.96476562 649.64507813 426.23828125 648.75390625 C425.04968059 647.29149183 423.8615756 645.82866851 422.67724609 644.36279297 C421.31115244 642.67481199 419.93742296 640.99329243 418.5625 639.3125 C417.73878906 638.29800781 416.91507813 637.28351562 416.06640625 636.23828125 C415.38449219 635.49964844 414.70257812 634.76101563 414 634 C413.34 634 412.68 634 412 634 C411.78472656 633.31164062 411.56945313 632.62328125 411.34765625 631.9140625 C409.60506925 628.14603379 407.18563344 625.45336847 404.4375 622.375 C403.33888723 621.11932581 402.24123822 619.8628078 401.14453125 618.60546875 C400.60521973 617.98978027 400.0659082 617.3740918 399.51025391 616.73974609 C396.7550311 613.56585057 394.11969051 610.29600517 391.46875 607.03515625 C383.67975042 597.45912354 375.82942579 587.93494734 367.83251953 578.53173828 C364.26971596 574.33671818 360.78674425 570.08085722 357.3125 565.8125 C354.73853608 562.68200334 352.12430914 559.58827539 349.5 556.5 C345.37898366 551.65040619 341.33008646 546.74839194 337.3125 541.8125 C334.73853455 538.68200149 332.12423097 535.58834366 329.5 532.5 C323.85142056 525.84966349 318.33176492 519.09878994 312.828125 512.328125 C308.30588185 506.77955717 303.72116721 501.29085205 299.08642578 495.83642578 C295.44045068 491.53888375 291.8702272 487.18342199 288.3125 482.8125 C285.73853608 479.68200334 283.12430914 476.58827539 280.5 473.5 C276.38016701 468.65179875 272.33204036 463.75154155 268.31640625 458.81640625 C265.72212765 455.66214845 263.08395327 452.54795657 260.4375 449.4375 C255.84950474 444.0432998 251.38263294 438.56305557 247 433 C249.28577213 428.89772021 252.05991843 425.40770844 255.125 421.875 C256.11793905 420.71678972 257.11011605 419.55792573 258.1015625 418.3984375 C258.59301758 417.82448242 259.08447266 417.25052734 259.59082031 416.65917969 C261.59443073 414.3001124 263.54856463 411.90230852 265.5 409.5 C269.24787798 404.8954642 273.06983444 400.35980809 276.9140625 395.8359375 C279.81244823 392.4194046 282.671551 388.97495162 285.5 385.5 C289.24787798 380.8954642 293.06983444 376.35980809 296.9140625 371.8359375 C300.55859407 367.53986956 304.1278734 363.18631659 307.68359375 358.81640625 C310.27787266 355.66214808 312.91606265 352.5479702 315.5625 349.4375 C318.76739191 345.66911061 321.92687694 341.87753972 325 338 C328.52883403 333.54746299 332.18229329 329.21314021 335.86328125 324.88671875 C338.78004513 321.45428391 341.65693426 317.99407185 344.5 314.5 C348.24787798 309.8954642 352.06983444 305.35980809 355.9140625 300.8359375 C358.81244823 297.4194046 361.671551 293.97495162 364.5 290.5 C367.7882374 286.46016548 371.12731461 282.46916723 374.5 278.5 C379.40545844 272.72457456 384.22028665 266.88007901 389 261 C394.23918408 254.55467282 399.53539575 248.16577088 404.91357422 241.83642578 C407.81219839 238.41979268 410.67140579 234.97513003 413.5 231.5 C417.24787798 226.8954642 421.06983444 222.35980809 424.9140625 217.8359375 C428.56111092 213.53690276 432.13480125 209.18211988 435.6875 204.8046875 C437.33375653 202.80804529 438.99351583 200.83787236 440.6875 198.8828125 C458.43777762 178.37385752 469.93625362 157.10785123 468.21875 129.43994141 C466.68685454 112.35315206 459.5858587 96.63291076 448 84 C447.37480469 83.29488281 446.74960938 82.58976562 446.10546875 81.86328125 C432.78066891 67.61578651 412.9886287 59.94217698 393.74609375 58.875 C383.20323562 58.60423639 373.33072441 60.5702165 363.4609375 64.1953125 C361 65 361 65 358 65 C357.67 65.66 357.34 66.32 357 67 C355.10573246 67.91330757 353.21136001 68.82639831 351.31640625 69.73828125 C347.16935627 71.99712972 343.63332828 75.00629576 340 78 C339.40316406 78.46148437 338.80632813 78.92296875 338.19140625 79.3984375 C333.61546884 83.05496023 330.09695412 87.37422587 326.453125 91.94140625 C323.85742533 95.17776428 321.1908315 98.34292606 318.5 101.5 C313.59358926 107.27459885 308.77969254 113.11994659 304 119 C298.76081592 125.44532718 293.46460425 131.83422912 288.08642578 138.16357422 C285.18780161 141.58020732 282.32859421 145.02486997 279.5 148.5 C275.75212202 153.1045358 271.93016556 157.64019191 268.0859375 162.1640625 C264.43719215 166.46509753 260.86355273 170.82346097 257.3046875 175.19921875 C254.77966925 178.26775787 252.20515231 181.29039812 249.625 184.3125 C245.84207508 188.74851603 242.19467263 193.26600643 238.625 197.875 C234.16948329 203.62027155 229.48856595 209.13095441 224.70019531 214.60058594 C220.78368043 219.07760385 216.98672933 223.63542937 213.2421875 228.2578125 C210.69746317 231.37000148 208.10381775 234.43726497 205.5 237.5 C202.12711398 241.46899152 198.78823226 245.4601718 195.5 249.5 C192.2117626 253.53983452 188.87268539 257.53083277 185.5 261.5 C180.59454156 267.27542544 175.77971335 273.11992099 171 279 C165.76081592 285.44532718 160.46460425 291.83422912 155.08642578 298.16357422 C152.18780161 301.58020732 149.32859421 305.02486997 146.5 308.5 C142.75212202 313.1045358 138.93016556 317.64019191 135.0859375 322.1640625 C132.18755177 325.5805954 129.328449 329.02504838 126.5 332.5 C123.21176186 336.53983543 119.87265239 340.53080427 116.5 344.5 C112.44987401 349.2691121 108.45647887 354.07912432 104.50390625 358.9296875 C96.69208052 368.50861889 88.84027163 378.05229952 80.83251953 387.46826172 C78.01761419 390.78266968 75.24536045 394.12782274 72.5 397.5 C37.44371358 440.47825861 -4.22033723 471.83324971 -60.81365967 478.78089905 C-64.36389262 479.13668054 -67.90282873 479.20152068 -71.46875 479.23828125 C-72.25817993 479.24812042 -73.04760986 479.25795959 -73.86096191 479.26809692 C-107.02650109 479.59604612 -136.97647731 474.78856489 -167 460 C-167.97308105 459.52675293 -167.97308105 459.52675293 -168.96582031 459.04394531 C-204.06541871 441.78917585 -231.75382155 413.34619694 -250 379 C-250.33725098 378.3694873 -250.67450195 377.73897461 -251.02197266 377.08935547 C-262.93228551 354.40689544 -270.15392993 327.51222109 -270.14717102 301.82810974 C-270.15084771 301.057395 -270.1545244 300.28668025 -270.1583125 299.49261051 C-270.16923265 296.93704255 -270.17317321 294.3815154 -270.17700195 291.82592773 C-270.18327584 289.98178991 -270.18992344 288.13765332 -270.19691467 286.29351807 C-270.21786178 280.25688541 -270.22831393 274.22025281 -270.23828125 268.18359375 C-270.24233344 266.09368439 -270.24645049 264.00377515 -270.25063133 261.91386604 C-270.26966893 252.08302061 -270.28389837 242.25218258 -270.2922433 232.42132229 C-270.30198589 221.13467253 -270.32823332 209.84822044 -270.36874419 198.5616402 C-270.39909362 189.80022038 -270.41373018 181.03885658 -270.41702431 172.27738529 C-270.41935497 167.06311908 -270.42805154 161.8490643 -270.45348549 156.63485527 C-270.68817442 105.91643876 -270.68817442 105.91643876 -262.3125 82.6875 C-261.79768066 81.21289307 -261.79768066 81.21289307 -261.27246094 79.70849609 C-253.40144542 57.74146589 -241.90417926 38.12522949 -226 21 C-225.44473633 20.4009082 -224.88947266 19.80181641 -224.31738281 19.18457031 C-204.4199228 -2.0240897 -180.62350898 -16.89574502 -153 -26 C-152.24154785 -26.25362305 -151.4830957 -26.50724609 -150.70166016 -26.76855469 C-99.84319094 -43.39600922 -42.14636385 -32.40598883 0 0 Z " fill="#231137" transform="translate(911,157)"/>
<path d="M0 0 C20.67891862 17.78442665 30.86883937 43.09409704 33 70 C34.40330186 97.62750536 28.97453124 125.26653637 11 147 C10.30132813 147.86109375 9.60265625 148.7221875 8.8828125 149.609375 C-4.27222875 165.05835583 -22.80980471 174.14401505 -42.8125 176.75 C-44.20677579 176.85625522 -45.60297654 176.93982858 -47 177 C-47.75023437 177.03996094 -48.50046875 177.07992188 -49.2734375 177.12109375 C-68.52706782 177.65072436 -87.86250449 171.66007472 -102.73217773 159.3581543 C-103.71959457 158.54332077 -104.70701141 157.72848724 -105.72434998 156.88896179 C-106.47531448 156.2656044 -107.22627899 155.64224701 -108 155 C-108.00142502 155.95498383 -108.00285004 156.90996765 -108.00431824 157.89389038 C-108.02104202 166.92671834 -108.06397911 175.9590989 -108.13209057 184.99168968 C-108.16627233 189.63466125 -108.19145677 194.27730685 -108.19555664 198.92041016 C-108.19985859 203.40760508 -108.22847725 207.89406579 -108.27343178 212.38103104 C-108.28634648 214.08644955 -108.29073599 215.7919562 -108.28615379 217.49741745 C-108.2650082 227.76437553 -108.4043723 236.97357132 -115.78434753 244.92172241 C-122.06275252 250.91576475 -129.04307448 251.52190689 -137.453125 251.37109375 C-143.70313648 250.71718286 -148.45209878 248.58505811 -152.875 244.09765625 C-158.23157754 237.38905793 -159.29747787 231.08730243 -159.26069641 222.71450806 C-159.26452196 221.78805965 -159.26834751 220.86161124 -159.27228898 219.90708864 C-159.28259553 216.80730451 -159.27863125 213.70770643 -159.2746582 210.60791016 C-159.27900598 208.38357878 -159.28418935 206.15924891 -159.29014587 203.93492126 C-159.30354028 197.89565895 -159.30411402 191.8564592 -159.30158257 185.81718493 C-159.30051313 180.77490178 -159.30539559 175.73263132 -159.310188 170.69035089 C-159.32191927 158.11402549 -159.32105723 145.53773838 -159.31463119 132.96141355 C-159.30946312 122.04843395 -159.32071532 111.13554364 -159.33972941 100.2225817 C-159.35911853 89.0081033 -159.36707063 77.79366597 -159.36360615 66.57916677 C-159.36179303 60.2867206 -159.36443244 53.99435621 -159.37832069 47.70192337 C-159.39089356 41.7839647 -159.38895989 35.86618475 -159.37590981 29.94822884 C-159.37354328 27.77785621 -159.3762814 25.60747104 -159.38453293 23.43711281 C-159.39499547 20.47102108 -159.38690335 17.50552953 -159.3742218 14.53945923 C-159.38159609 13.68360942 -159.38897037 12.8277596 -159.39656812 11.94597495 C-159.3257774 4.05841483 -157.25735359 -2.60186181 -151.77734375 -8.45703125 C-145.71999406 -13.71560955 -139.07680214 -14.72598524 -131.21875 -14.44140625 C-124.21314537 -13.4806862 -118.94584611 -10.63142144 -114.5 -5.125 C-112.08511244 -1.53677724 -110.87874311 1.78203308 -110 6 C-109.44054687 5.443125 -108.88109375 4.88625 -108.3046875 4.3125 C-78.52089714 -24.03477314 -31.8338374 -25.65408863 0 0 Z M-99 41 C-109.98938334 57.09091208 -113.19472451 74.21388051 -109.9375 93.4375 C-106.79853606 107.75532139 -99.87606175 119.23629898 -87.65625 127.42578125 C-76.21587227 134.20588747 -63.75912416 135.73913151 -50.8125 132.8125 C-39.5676436 129.64988414 -29.93814392 123.12917131 -23.6875 113.125 C-17.8088225 102.49127033 -14.59951043 91.9189579 -14.6875 79.75 C-14.69313965 78.92298584 -14.6987793 78.09597168 -14.70458984 77.24389648 C-15.0183169 61.25468855 -20.20946869 47.9846842 -31.36328125 36.4140625 C-41.52202889 27.11316466 -52.80529905 24.39885586 -66.3515625 24.71484375 C-79.15128129 25.71525004 -90.47616913 31.35977358 -99 41 Z " fill="#030303" transform="translate(785,1294)"/>
<path d="M0 0 C5.0164952 2.78913191 8.64514597 6.72046395 10.80453491 12.03079224 C11.91650654 16.03745778 12.05732912 19.79831474 12.06884766 23.92138672 C12.07889328 24.75131638 12.0889389 25.58124603 12.09928894 26.43632507 C12.13003291 29.16327256 12.14713154 31.89012225 12.1640625 34.6171875 C12.18278122 36.51434159 12.20235516 38.41148743 12.2227478 40.30862427 C12.27400058 45.28978598 12.31366298 50.27097466 12.35089111 55.2522583 C12.39097375 60.34011469 12.44204665 65.42785955 12.4921875 70.515625 C12.58886563 80.4895049 12.67329636 90.46344788 12.75 100.4375 C20.58550071 92.62524003 28.41824593 84.81022873 36.24755192 76.99176025 C39.88367218 73.36084325 43.52071032 69.73085599 47.15991211 66.10302734 C50.67641474 62.59744488 54.19041983 59.08937625 57.70275688 55.57962036 C59.03859506 54.24562004 60.37530838 52.91249543 61.71293831 51.58029175 C70.74615752 42.6079953 70.74615752 42.6079953 79.2688446 33.15563965 C83.63695968 28.08862797 88.46766261 23.41357864 93.17382812 18.66357422 C94.47643304 17.34434446 95.77363995 16.0197632 97.06542969 14.68994141 C98.95588592 12.74439078 100.86257647 10.81611436 102.7734375 8.890625 C103.33936615 8.30202698 103.9052948 7.71342896 104.4883728 7.10699463 C109.39790837 2.22256519 114.88760557 -0.87942374 121.75390625 -2.09375 C129.13191403 -2.00363693 134.16745445 -0.76271855 139.7265625 4.203125 C144.69088888 9.39217398 146.56757549 13.7476698 146.84375 20.84765625 C146.41738077 32.34186007 138.17931258 39.54070511 130.30252075 47.01541138 C128.59059535 48.58351257 126.83536822 50.09297169 125.07373047 51.60498047 C120.72559708 55.40238788 116.65023976 59.42661616 112.59375 63.53125 C111.8471814 64.28160522 111.10061279 65.03196045 110.3314209 65.80505371 C107.96847975 68.1800992 105.6088263 70.55836817 103.25 72.9375 C100.13839354 76.07589217 97.02336245 79.21082745 93.90625 82.34375 C92.85745667 83.40499084 92.85745667 83.40499084 91.78747559 84.4876709 C87.81281415 88.48180316 83.73645079 92.28572996 79.45739746 95.95275879 C77.4586927 97.69081884 75.58402493 99.52705737 73.75 101.4375 C75.23519521 105.9605945 77.78189951 109.2965689 80.75 112.9375 C81.74931834 114.18570145 82.74800275 115.43441067 83.74609375 116.68359375 C84.50188721 117.62501221 84.50188721 117.62501221 85.27294922 118.58544922 C87.48829536 121.36323696 89.65275495 124.17889761 91.8125 127 C92.42448242 127.79760742 92.42448242 127.79760742 93.04882812 128.61132812 C93.8715188 129.68355531 94.69394821 130.75598301 95.51611328 131.82861328 C97.59092587 134.53399812 99.67072853 137.23554166 101.75 139.9375 C102.58335693 141.02081518 103.41669027 142.10414851 104.25 143.1875 C104.86875 143.991875 104.86875 143.991875 105.5 144.8125 C113.41666667 155.10416667 121.33333333 165.39583333 129.25 175.6875 C129.66258057 176.22383057 130.07516113 176.76016113 130.50024414 177.31274414 C131.33285808 178.39519106 132.16537775 179.4777105 132.99780273 180.56030273 C135.09137244 183.28280322 137.18660817 186.00399085 139.28515625 188.72265625 C141.36705874 191.42006727 143.44070377 194.12370017 145.51220703 196.82910156 C146.76952288 198.46286819 148.03852435 200.08707345 149.30859375 201.7109375 C150.11425781 202.75507812 150.91992188 203.79921875 151.75 204.875 C152.471875 205.80183594 153.19375 206.72867187 153.9375 207.68359375 C158.23274107 214.20976822 158.51338082 220.84283953 157.75 228.4375 C156.00274642 235.6034514 151.80581873 240.36645612 145.75 244.4375 C139.33951339 247.65349915 131.06825793 247.67799335 124.234375 245.71484375 C116.68073274 242.15425284 111.96277588 235.34256961 107 228.875 C106.37657715 228.06780518 105.7531543 227.26061035 105.11083984 226.42895508 C101.11964647 221.2509531 97.17359298 216.04092081 93.26953125 210.796875 C90.58649446 207.20450568 87.85838827 203.64683991 85.13476562 200.08520508 C79.14553486 192.25221136 73.20588634 184.38922045 67.375 176.4375 C62.37823886 169.62379802 57.30073792 162.88899638 52.12158203 156.21240234 C49.27445928 152.52806941 46.45180982 148.82492467 43.625 145.125 C42.75282837 143.98393799 42.75282837 143.98393799 41.86303711 142.81982422 C40.49184516 141.02585325 39.12086949 139.23171738 37.75 137.4375 C36.78795654 138.27796875 35.82591309 139.1184375 34.8347168 139.984375 C32.04223966 142.40104911 29.16175192 144.59589455 26.17504883 146.765625 C18.26298776 152.98274152 12.62259742 158.72229402 11.27880859 169.01953125 C10.65520799 177.04784478 10.98068169 185.11568465 11.34191895 193.14923096 C11.59441866 199.19422885 11.67901237 205.24433483 11.77567482 211.29342651 C11.82295296 213.38159314 11.91101312 215.46461268 12.00724792 217.55102539 C12.277021 226.54831249 11.27864436 233.61591546 4.93388367 240.37109375 C-2.19370473 247.00142056 -9.56428336 247.0419921 -18.84375 246.80859375 C-25.40716859 246.42047914 -29.56099941 244.29053549 -34.04296875 239.53515625 C-39.30111665 233.0280421 -40.54943196 226.93897289 -40.51069641 218.75942993 C-40.51452196 217.89831836 -40.51834751 217.03720679 -40.52228898 216.15000093 C-40.53258838 213.27132482 -40.52863263 210.39284931 -40.5246582 207.51416016 C-40.52900638 205.44746212 -40.53418988 203.38076569 -40.54014587 201.31407166 C-40.55353604 195.7045464 -40.55411449 190.09508852 -40.55158257 184.4855504 C-40.55051283 179.80115414 -40.55539635 175.11677151 -40.560188 170.43237817 C-40.57128335 159.38003862 -40.57172049 148.32773305 -40.56567383 137.27539062 C-40.55963376 125.87714135 -40.57194588 114.47901551 -40.5932439 103.0807873 C-40.61086281 93.29123003 -40.61686077 83.50171203 -40.61360615 73.71213949 C-40.61179355 67.86682172 -40.61442728 62.021592 -40.62832069 56.1762886 C-40.64089898 50.67856256 -40.63895479 45.18102884 -40.62590981 39.68330574 C-40.62354445 37.66773857 -40.62627722 35.65215787 -40.63453293 33.63660622 C-40.64500553 30.88069406 -40.63689552 28.12542661 -40.6242218 25.36953735 C-40.63159609 24.57594271 -40.63897037 23.78234807 -40.64656812 22.96470511 C-40.58405184 16.48258158 -38.97456194 11.40374653 -35.6875 5.75 C-26.47961168 -2.98568892 -11.78418929 -4.60163589 0 0 Z " fill="#030303" transform="translate(200.25,1220.5625)"/>
<path d="M0 0 C4.0036843 3.34402343 7.32785249 6.91412946 10.5625 11 C10.76552734 10.05640625 10.76552734 10.05640625 10.97265625 9.09375 C12.98178786 1.10534649 16.55701145 -4.11232221 23.25 -8.9375 C29.81818001 -11.95531244 37.99120897 -12.1765454 44.9453125 -10.38671875 C50.80888338 -7.77685485 55.91486845 -3.03291798 58.35634136 2.94309044 C60.8358154 10.37229774 60.98097734 17.35279272 60.93481445 25.13525391 C60.9372475 26.53260061 60.94097177 27.92994556 60.94587708 29.32728577 C60.95521789 33.09373408 60.94591946 36.85991943 60.93254495 40.62634706 C60.92115983 44.58239012 60.92534327 48.53842156 60.92729187 52.49447632 C60.92817242 59.13340509 60.91714295 65.77223128 60.89868164 72.41113281 C60.87750024 80.0717746 60.8740093 87.73226643 60.8802436 95.39293158 C60.88594961 102.7847545 60.88027815 110.17652495 60.86907005 117.5683403 C60.86444222 120.70450187 60.86354229 123.84063116 60.8656559 126.9767952 C60.86754768 130.6721474 60.85936694 134.36734824 60.8435955 138.06266594 C60.83737118 140.05535301 60.84084655 142.04806309 60.84466553 144.04075623 C60.78636058 153.91434871 60.3119644 162.277914 52.921875 169.6328125 C46.37267143 175.52709572 40.9218042 176.5273384 32.14453125 176.37109375 C24.99195429 175.63009614 19.67918963 172.81746898 15.125 167.25 C12.35376883 163.13633107 10.8217006 158.77170754 9.5625 154 C9.01078125 154.73605469 8.4590625 155.47210937 7.890625 156.23046875 C-1.90953674 167.88871484 -18.63296972 176.12001903 -33.4375 179 C-34.79488281 179.27263672 -34.79488281 179.27263672 -36.1796875 179.55078125 C-57.38460691 182.47472098 -78.16048669 177.80047625 -95.4375 165 C-113.63476447 150.19425654 -125.15422745 130.74384403 -130.4375 108 C-130.68242188 106.99582031 -130.92734375 105.99164062 -131.1796875 104.95703125 C-136.57319416 77.58313784 -132.05801465 45.43077197 -116.453125 22.0234375 C-114.50208418 19.30224898 -112.4930085 16.64279664 -110.4375 14 C-109.674375 12.96875 -108.91125 11.9375 -108.125 10.875 C-80.38491737 -18.80043723 -32.67064441 -25.08638767 0 0 Z M-65.4375 38 C-66.04207031 38.45503906 -66.64664062 38.91007812 -67.26953125 39.37890625 C-76.98874301 47.78174622 -82.14657263 62.51723902 -83.07177734 75.03613281 C-84.08395083 93.30650482 -80.89074211 109.92242197 -68.4375 124 C-59.81192695 132.49683315 -48.42088557 137.07087903 -36.375 137.25 C-22.94479225 137.09841752 -12.44745049 132.97225706 -2.6875 123.75 C8.81064244 111.56237459 12.71555712 96.54717558 12.5625 80 C11.50507326 63.78070057 6.74131734 49.62942323 -5.125 38.125 C-16.37951015 28.50782288 -29.01823233 27.26655007 -43.15576172 27.82080078 C-51.65196135 28.48806063 -58.84806541 32.86651667 -65.4375 38 Z " fill="#030303" transform="translate(1650.4375,1291)"/>
<path d="M0 0 C3.52507258 3.14330402 6.79186216 6.53634675 10 10 C10.34611328 9.02160156 10.34611328 9.02160156 10.69921875 8.0234375 C13.9095014 -0.57961245 17.59047345 -6.166467 26.125 -10.078125 C33.32128571 -12.38562966 40.53056309 -12.05359316 47.4375 -9 C54.33682577 -5.03989919 57.82237487 0.47943489 60 8 C60.25447559 11.0429287 60.25447559 11.0429287 60.26069641 14.3243103 C60.26778122 15.57470596 60.27486603 16.82510162 60.28216553 18.11338806 C60.27987204 19.48623694 60.27736239 20.85908547 60.2746582 22.23193359 C60.27900875 23.68780274 60.28419305 25.1436696 60.29014587 26.59953308 C60.30351098 30.54382993 60.30411727 34.4880308 60.30158257 38.43234587 C60.30051107 41.72993125 60.30540088 45.02749736 60.310188 48.32507861 C60.3212748 56.10768432 60.32172539 63.89024177 60.31567383 71.67285156 C60.30963541 79.69016357 60.32194354 87.70730002 60.3432439 95.72458208 C60.36088258 102.61820064 60.36685764 109.51176344 60.36360615 116.40540373 C60.3617966 120.51810394 60.36439657 124.63067893 60.37832069 128.74335861 C60.39093122 132.6126926 60.38892467 136.48175377 60.37590981 140.35108376 C60.37355139 141.7667799 60.37625228 143.18249544 60.38453293 144.59816933 C60.43931321 154.69587041 59.90531003 162.81782043 52.703125 170.45703125 C46.32171507 176.23835447 40.04420261 176.6442604 31.5625 176.375 C23.86561767 175.56480186 19.35149502 172.20357844 14.4765625 166.3046875 C12.03095819 162.48747442 10.94669493 158.39987738 10 154 C9.39478516 154.69222656 9.39478516 154.69222656 8.77734375 155.3984375 C-5.12425286 170.33306146 -24.05495449 179.22701605 -44.4296875 180.28515625 C-67.51020217 180.9782648 -87.1691633 173.47029249 -104.1796875 157.84765625 C-124.10846347 137.61952099 -132.71727003 110.88679379 -133.1875 82.9375 C-132.91505529 52.87776738 -123.61329452 26.65381785 -102.109375 5.10546875 C-74.77815989 -20.33093523 -29.51147208 -22.79027294 0 0 Z M-71.9609375 44.23828125 C-82.87838152 59.02493435 -85.16701164 77.34821923 -82.69091797 95.23242188 C-80.15031766 108.95101458 -73.90072848 120.24568782 -63 129 C-50.7474273 136.71576612 -37.98181655 138.98527317 -23.8125 135.8125 C-12.5676436 132.64988414 -2.93814392 126.12917131 3.3125 116.125 C12.39804468 99.64014746 14.51713523 81.58832871 10.03125 63.3125 C5.83427913 49.83132086 -2.43378261 38.70198261 -15 32 C-15.7734375 31.5875 -16.546875 31.175 -17.34375 30.75 C-36.35972122 22.29845723 -58.90282705 28.80387155 -71.9609375 44.23828125 Z " fill="#030303" transform="translate(517,1291)"/>
<path d="M0 0 C6.02876235 3.38503841 9.5318347 7.28565741 11.90377808 13.8374176 C13.29096234 18.89714462 13.08693856 23.99738547 13.05126953 29.20678711 C13.05156158 30.32946991 13.05185364 31.45215271 13.05215454 32.6088562 C13.05076581 36.30442138 13.03522584 39.99978272 13.01953125 43.6953125 C13.01579951 46.26363515 13.0129533 48.83195923 13.01095581 51.40028381 C13.00411052 57.45976104 12.98836185 63.51915467 12.96825683 69.57860047 C12.94585601 76.48067684 12.93489391 83.38275678 12.92486596 90.28486049 C12.90399432 104.47510218 12.86884454 118.66528288 12.82421875 132.85546875 C22.15400437 132.15857928 27.47790438 130.73157407 33.82421875 123.85546875 C35.52635064 122.16655346 37.23035526 120.47952436 38.93579102 118.79394531 C40.34509859 117.36469642 41.75432052 115.93535815 43.16031075 114.50284576 C44.6756764 112.96041635 46.19573633 111.42275782 47.7172699 109.88641357 C52.03722033 105.52411337 56.3541505 101.1589463 60.6550293 96.77783203 C63.30098442 94.08320169 65.95673806 91.39856982 68.61903191 88.72008514 C69.62456155 87.7047101 70.62643849 86.68570326 71.62442207 85.66291046 C82.39184194 74.6335253 82.39184194 74.6335253 90.8515625 73.421875 C98.42496174 73.41170936 103.9422179 74.19876259 109.57421875 79.50390625 C115.0414045 85.52306748 116.30666432 90.79113384 116.12890625 98.859375 C115.01443815 109.81831134 105.6439287 116.35415552 97.82421875 123.07421875 C95.74084797 124.92972085 93.78140668 126.86769976 91.82421875 128.85546875 C88.62392353 132.10576858 85.28197299 135.1027112 81.82421875 138.07421875 C79.04496891 140.54948814 76.46538245 143.20412785 73.85546875 145.85546875 C70.64888176 149.01272363 67.24999463 151.93991481 63.82421875 154.85546875 C66.0778726 158.89573635 68.79638014 162.3210685 71.82421875 165.79296875 C75.76102779 170.37005868 79.56577551 175.01948908 83.26171875 179.79296875 C86.98957582 184.59745121 90.83782577 189.26338529 94.82421875 193.85546875 C99.3138643 199.02814821 103.61283639 204.3127153 107.80273438 209.73071289 C110.02166322 212.59198449 112.26978384 215.40886562 114.62890625 218.15625 C115.30832275 218.94974854 115.30832275 218.94974854 116.00146484 219.75927734 C117.23724836 221.19212932 118.48347739 222.61595385 119.73046875 224.0390625 C124.44389912 230.37932985 125.7185336 236.16684521 124.82421875 243.85546875 C122.79579266 250.5041987 119.03702313 255.86658985 113.1171875 259.53125 C106.47005149 262.20429758 96.24857231 262.32909594 89.51171875 259.66796875 C83.50240261 255.94033556 79.15392902 249.34984783 74.82421875 243.85546875 C74.15648437 243.02660156 73.48875 242.19773437 72.80078125 241.34375 C71.54091265 239.77821708 70.28722592 238.20769354 69.0390625 236.6328125 C66.2232196 233.10183489 63.36608636 229.60531925 60.51171875 226.10546875 C55.95182208 220.50815954 51.45603002 214.86675328 47.01318359 209.17626953 C41.38582845 201.98701941 35.59979888 194.92573378 29.82421875 187.85546875 C27.88770565 189.21514816 25.99892765 190.609488 24.13354492 192.06616211 C21.82421875 193.85546875 21.82421875 193.85546875 19.5402832 195.33422852 C16.40524366 197.72341921 14.24470088 199.86939411 13.40374756 203.8414917 C12.73227191 209.80824464 12.89471117 215.79993676 13.01171875 221.79296875 C13.03807574 224.50000128 13.05274721 227.20630546 13.05158997 229.91346741 C13.05359153 231.58988471 13.0723506 233.26640331 13.1113739 234.94236755 C13.16731885 242.12954049 11.61481367 248.14399644 7.63671875 254.16796875 C1.72269945 259.81914275 -4.1201785 261.5204299 -12.17578125 261.35546875 C-12.93117188 261.3709375 -13.6865625 261.38640625 -14.46484375 261.40234375 C-21.04918348 261.35709056 -26.27857888 259.46742533 -31.19921875 255.03125 C-31.64523437 254.41636719 -32.09125 253.80148437 -32.55078125 253.16796875 C-33.24300781 252.26498047 -33.24300781 252.26498047 -33.94921875 251.34375 C-37.17224874 244.80531018 -37.46856725 237.64824575 -37.42974854 230.48168945 C-37.43286852 229.5819682 -37.4359885 228.68224695 -37.43920302 227.75526142 C-37.44713075 224.76385609 -37.44087986 221.77265657 -37.43457031 218.78125 C-37.43728249 216.62706382 -37.4408447 214.47287857 -37.44519043 212.31869507 C-37.45428962 206.48407583 -37.45078034 200.64952751 -37.44443226 194.81490707 C-37.4393595 188.70122846 -37.44406726 182.58755581 -37.44720459 176.47387695 C-37.45084051 166.20815951 -37.44605494 155.94247088 -37.43652344 145.67675781 C-37.42563963 133.81781233 -37.42916547 121.95893562 -37.44017625 110.0999918 C-37.44925977 99.907816 -37.45052918 89.71566087 -37.44529891 79.52348232 C-37.44218508 73.44066173 -37.44175377 67.35787344 -37.44837189 61.27505493 C-37.45416018 55.55570897 -37.45012124 49.83645146 -37.43858337 44.11711502 C-37.43594473 42.02133964 -37.43668825 39.92555678 -37.4411087 37.82978439 C-37.44659702 34.96283932 -37.43969024 32.09617536 -37.42974854 29.22924805 C-37.43420998 28.40559407 -37.43867142 27.5819401 -37.44326806 26.73332691 C-37.39297215 19.22373465 -36.70376456 11.45462059 -31.81640625 5.4296875 C-23.56503624 -2.48769849 -10.55258112 -3.80308274 0 0 Z " fill="#030303" transform="translate(1797.17578125,1206.14453125)"/>
<path d="M0 0 C17.47954034 17.91958472 24.74524805 41.78902649 24.625 66.5 C24.62886719 67.29857422 24.63273437 68.09714844 24.63671875 68.91992188 C24.63478516 70.10618164 24.63478516 70.10618164 24.6328125 71.31640625 C24.63168457 72.0132251 24.63055664 72.71004395 24.62939453 73.42797852 C24.44796687 76.94664824 23.93701703 80.44136374 23.5 83.9375 C-42.335 84.4325 -42.335 84.4325 -109.5 84.9375 C-103.87333762 100.69215465 -97.54532615 111.33576757 -82.75 119.25 C-67.78235923 126.14225114 -49.06364738 127.69903625 -33.1484375 122.93359375 C-29.29667032 121.48492025 -25.56835717 119.83713968 -21.875 118.0234375 C-15.67412519 115.18816908 -9.87707555 115.2393291 -3.4375 117.4375 C1.84462487 119.68401348 4.73803484 122.97411611 7.5 127.9375 C9.51962336 133.99637009 9.58708072 141.3797353 7.0625 147.3125 C-0.20893529 159.53255098 -19.56789522 164.12175947 -32.52197266 167.44873047 C-59.74466776 174.17544432 -90.27889539 169.96685743 -114.61865234 156.08496094 C-135.17450934 143.54764873 -148.85872807 124.31670888 -155.7109375 101.390625 C-157.82154011 92.15412645 -158.86386974 83.22436681 -158.8125 73.75 C-158.80758545 72.66283691 -158.8026709 71.57567383 -158.79760742 70.45556641 C-158.40222706 43.02225219 -148.84372505 18.48387983 -129.5 -1.0625 C-116.0566784 -13.81156556 -96.9473829 -23.02994317 -78.5 -25.0625 C-77.42105469 -25.19527344 -76.34210938 -25.32804687 -75.23046875 -25.46484375 C-46.44036372 -28.24092105 -21.09106112 -19.95179327 0 0 Z M-100.7578125 31.74609375 C-105.57765337 37.8087187 -108.23730133 44.361308 -109.5 51.9375 C-80.79 51.9375 -52.08 51.9375 -22.5 51.9375 C-24.78972033 39.34403817 -27.91191666 31.3096646 -38.5 23.9375 C-58.28865168 11.91725278 -84.52981903 15.04929158 -100.7578125 31.74609375 Z " fill="#040404" transform="translate(1001.5,1301.0625)"/>
<path d="M0 0 C1.72808899 -0.00788544 1.72808899 -0.00788544 3.49108887 -0.01593018 C7.28773678 -0.02910152 11.08396327 -0.0204024 14.88061523 -0.01025391 C17.52424703 -0.01227531 20.16787829 -0.01518731 22.81150818 -0.01895142 C28.34687849 -0.02439899 33.88212845 -0.01724291 39.41748047 -0.00292969 C45.80745598 0.01340309 52.19714438 0.00809994 58.58711296 -0.0084089 C64.74823268 -0.02368627 70.90922558 -0.02204033 77.07035637 -0.0132637 C79.68622821 -0.01126301 82.30210738 -0.01371636 84.91797066 -0.02070236 C88.57311536 -0.02832258 92.22770884 -0.016704 95.8828125 0 C96.96298141 -0.00607269 98.04315033 -0.01214539 99.15605164 -0.0184021 C105.76490658 0.03753799 110.43216177 0.6480421 115.45874023 5.32568359 C116.02979492 6.00630859 116.60084961 6.68693359 117.18920898 7.38818359 C117.7731543 8.06880859 118.35709961 8.74943359 118.95874023 9.45068359 C121.9052986 13.47683497 121.62751962 17.79270187 121.68920898 22.57568359 C121.71821289 23.3059375 121.7472168 24.03619141 121.77709961 24.78857422 C121.88278679 33.96709966 117.12774526 40.12780636 111.62670898 47.07568359 C110.46355785 48.57147359 109.30081628 50.06758215 108.13842773 51.56396484 C107.2206958 52.73886475 107.2206958 52.73886475 106.28442383 53.9375 C102.97367449 58.19054606 99.70622672 62.47650578 96.43920898 66.76318359 C95.76341797 67.64901123 95.08762695 68.53483887 94.39135742 69.44750977 C89.41192123 75.98971736 84.52312224 82.59415466 79.66381836 89.22583008 C74.6666005 96.03065739 69.55807529 102.74690376 64.42993164 109.45336914 C57.95854181 117.92024826 51.5618034 126.44209489 45.1809082 134.97729492 C42.58231912 138.44969914 39.9793865 141.91884322 37.37670898 145.38818359 C38.62792542 145.40031387 38.62792542 145.40031387 39.90441895 145.41268921 C47.78990921 145.49083576 55.67523339 145.57818609 63.56050873 145.67571068 C67.6137911 145.72552118 71.66704931 145.77185174 75.72045898 145.81005859 C79.63687444 145.84710506 83.55308001 145.89351575 87.46931458 145.9462471 C88.95868728 145.96468873 90.4481048 145.97983388 91.93754578 145.99152756 C111.75543958 146.15259953 111.75543958 146.15259953 119.37670898 152.38818359 C124.49706437 159.16919479 125.308235 165.04679151 124.37670898 173.38818359 C122.21640185 179.08692483 118.2454622 182.89538237 113.37670898 186.38818359 C110.41910541 187.37405145 108.47861921 187.52062672 105.39349365 187.53535461 C104.36454483 187.54250992 103.33559601 187.54966522 102.27546692 187.55703735 C100.58293037 187.56107071 100.58293037 187.56107071 98.85620117 187.56518555 C97.07287636 187.57504234 97.07287636 187.57504234 95.25352478 187.58509827 C91.31021772 187.60484568 87.36692396 187.61649917 83.42358398 187.62646484 C82.06447581 187.63051339 80.70536783 187.63463034 79.34626007 187.63881493 C72.95985149 187.65786235 66.57345444 187.67209377 60.18702292 187.6804269 C52.82294132 187.69019511 45.45916064 187.71650529 38.09518504 187.75692779 C32.39824446 187.78712281 26.70138996 187.801899 21.00437093 187.80520791 C17.60418542 187.80755475 14.20432154 187.81646665 10.80422211 187.84166908 C7.00750207 187.86598611 3.21156881 187.86510848 -0.58520508 187.8581543 C-2.26559624 187.87736938 -2.26559624 187.87736938 -3.97993469 187.89697266 C-11.09751512 187.84946079 -15.74924675 187.0603908 -21.07553482 182.01160145 C-26.58008271 175.94795486 -27.10723721 169.46819599 -26.91235352 161.61083984 C-25.97577773 151.16928551 -18.51354311 143.97171382 -12.10571289 136.20898438 C-10.06000536 133.69632187 -8.11765968 131.11405122 -6.18579102 128.51318359 C-2.61925391 123.71281744 0.99045527 118.94847701 4.62670898 114.20068359 C5.45416626 113.12004639 5.45416626 113.12004639 6.29833984 112.01757812 C7.4278288 110.54285407 8.55746863 109.06824556 9.68725586 107.59375 C12.4193772 104.02698927 15.14790171 100.45748 17.87670898 96.88818359 C18.96002418 95.47150306 20.04335754 94.05483641 21.12670898 92.63818359 C21.66295898 91.93693359 22.19920898 91.23568359 22.75170898 90.51318359 C24.37670898 88.38818359 26.00170898 86.26318359 27.62670898 84.13818359 C28.16320068 83.43661133 28.69969238 82.73503906 29.25244141 82.01220703 C30.33330916 80.59877708 31.414201 79.18536556 32.49511719 77.77197266 C35.24137403 74.18093658 37.98718202 70.58955879 40.73217773 66.99755859 C41.2903418 66.26730469 41.84850586 65.53705078 42.42358398 64.78466797 C43.4615067 63.42671909 44.49928558 62.06866025 45.53686523 60.71044922 C48.87873708 56.33860893 52.23122926 51.97500951 55.58691406 47.61376953 C56.04869301 47.01353973 56.51047195 46.41330994 56.9862442 45.79489136 C58.11635848 44.3259575 59.2465281 42.85706621 60.37670898 41.38818359 C59.47992432 41.38675858 58.58313965 41.38533356 57.65917969 41.38386536 C49.18491414 41.36599494 40.71116816 41.32426187 32.2371521 41.25609303 C27.88109528 41.22188266 23.52538694 41.19672237 19.16918945 41.19262695 C14.96078717 41.18833112 10.75317022 41.15976315 6.54501343 41.11475182 C4.94400618 41.10181762 3.34290476 41.09745464 1.74185181 41.1020298 C-14.74667919 41.13815498 -14.74667919 41.13815498 -20.62329102 35.38818359 C-25.28453773 29.99482142 -26.9593385 25.72897206 -26.83813477 18.47021484 C-26.20742926 12.35810515 -22.85889932 7.6237919 -18.62329102 3.38818359 C-12.47389618 -0.05167506 -6.94358395 -0.03911001 0 0 Z " fill="#020202" transform="translate(1368.623291015625,1279.61181640625)"/>
<path d="M0 0 C5.29611185 5.11866481 7.05323337 10.17557543 7.375 17.5 C7.13952747 24.51545738 5.16072925 28.58165077 0.3203125 33.5234375 C-5.09737677 38.3797082 -10.22339031 39.52606767 -17.3046875 39.375 C-22.21629896 38.73609119 -25.94462717 36.43662126 -30.1875 34 C-44.23686012 26.52625364 -56.89818563 22.1415701 -73.0625 26.25 C-85.75827719 30.2591928 -95.51542276 37.31970517 -102.1875 49 C-109.5529174 63.96527779 -111.57383733 79.59167902 -107.296875 95.83203125 C-102.28558633 110.14243658 -94.13490951 120.11508203 -80.84765625 127.2578125 C-67.79311526 133.12258133 -53.3109125 133.18457504 -40 128.25 C-35.57763103 126.34034067 -31.58864899 123.85797656 -27.5 121.328125 C-22.28156283 118.3310496 -17.12968305 117.3957102 -11.1875 118 C-4.42899425 119.86734225 -0.0198646 122.07725471 3.8125 128 C7.16929866 134.13483892 7.98757602 139.59531253 6.19140625 146.328125 C1.85547854 157.65934942 -8.67481993 162.41159666 -19.11035156 167.10400391 C-43.77390195 177.74284146 -72.33663152 179.88693691 -97.8125 170.8125 C-121.67965094 160.9170847 -139.7715549 143.66608212 -150.5 120.1875 C-154.85197006 109.44055171 -157.78034278 97.61283211 -158.1875 86 C-158.22746094 84.88625 -158.26742188 83.7725 -158.30859375 82.625 C-158.83152582 53.0947186 -149.62373842 27.40549288 -129.375 5.75 C-95.91272197 -26.10286987 -36.56879863 -28.61566972 0 0 Z " fill="#030303" transform="translate(1304.1875,1295)"/>
<path d="M0 0 C6.81512208 4.060378 11.4356563 9.70194146 13.5 17.3125 C13.78155043 20.37141365 13.77436927 23.41389147 13.76069641 26.48410034 C13.76643473 27.85539697 13.76643473 27.85539697 13.77228898 29.25439656 C13.78259426 32.31272288 13.77863149 35.37086059 13.7746582 38.42919922 C13.77900605 40.62397434 13.78418944 42.81874794 13.79014587 45.01351929 C13.80353953 50.97220589 13.8041141 56.93082908 13.80158257 62.8895278 C13.80051307 67.86470714 13.80539572 72.83987365 13.810188 77.81505024 C13.82191898 90.22409616 13.82105738 102.63311383 13.81463119 115.04216076 C13.80946316 125.809644 13.82071525 136.57703674 13.83972941 147.34450208 C13.8591192 158.40982143 13.86707052 169.47509589 13.86360615 180.5404321 C13.86179312 186.74904166 13.86443153 192.95756835 13.87832069 199.1661644 C13.89089451 205.0053294 13.88895899 210.84431328 13.87590981 216.68347549 C13.87354349 218.82482209 13.87628067 220.96618142 13.88453293 223.10751343 C13.89499725 226.03419633 13.88690197 228.96027117 13.8742218 231.88693237 C13.88159609 232.73110934 13.88897037 233.57528631 13.89656812 234.4450444 C13.824699 242.34854375 11.70794004 248.93068617 6.203125 254.76953125 C-0.17817963 260.55075907 -6.45269464 260.95248656 -14.93359375 260.69140625 C-22.29598028 259.90920308 -26.47340818 256.95141811 -31.17578125 251.38671875 C-35.12767589 245.1965829 -35.93942921 240.15863545 -35.89440918 232.95817566 C-35.90050028 232.03636751 -35.90659139 231.11455936 -35.91286707 230.16481763 C-35.92947039 227.08655859 -35.92472499 224.00871441 -35.91992188 220.93041992 C-35.92726378 218.71903556 -35.93585037 216.50765502 -35.94558716 214.29627991 C-35.96780006 208.29618038 -35.9707339 202.29621821 -35.96883965 196.29608321 C-35.96871992 191.28375509 -35.97728488 186.27145605 -35.98561716 181.25913602 C-36.0059502 168.75538678 -36.00700169 156.2517044 -35.99981004 143.74794934 C-35.99423704 132.9042214 -36.01505242 122.06072989 -36.04817051 111.21705719 C-36.08195525 100.06807569 -36.09659587 88.91918046 -36.09245348 77.77014047 C-36.09038728 71.51670836 -36.09584566 65.2635117 -36.12034607 59.0101223 C-36.14263308 53.12733499 -36.14071853 47.24503907 -36.12041855 41.36224937 C-36.11701191 39.20722572 -36.12208255 37.05216886 -36.13640213 34.89719009 C-36.27015366 13.27077186 -36.27015366 13.27077186 -30.5 6.3125 C-22.19817508 -1.41693468 -10.86557459 -5.11199414 0 0 Z " fill="#040404" transform="translate(1098.5,1206.6875)"/>
<path d="M0 0 C9.1126104 7.17592586 15.1750948 18.23516698 16.99609375 29.625 C18.0271982 44.57601454 14.47770346 56.38692063 4.80859375 67.8125 C-3.10091163 76.24581368 -12.68959519 81.30126421 -24.28515625 81.90625 C-38.87591593 82.34774613 -50.20732505 79.68853276 -61.30078125 69.51953125 C-66.09147597 64.43166937 -69.30829478 59.04749855 -72.00390625 52.625 C-72.32359375 51.90699219 -72.64328125 51.18898438 -72.97265625 50.44921875 C-77.30416037 39.48008562 -75.16053857 28.23399724 -71.23046875 17.515625 C-66.47324337 6.60455761 -55.90748105 -2.83184383 -45.00390625 -7.375 C-29.21649971 -12.73144151 -13.38942831 -9.18728804 0 0 Z " fill="#FDFDFD" transform="translate(716.00390625,741.375)"/>
<path d="M0 0 C0.33 0 0.66 0 1 0 C1 37.95 1 75.9 1 115 C8.425 114.01 8.425 114.01 16 113 C11.31645873 118.64426769 6.3792354 124.0058046 1 129 C0.67 129 0.34 129 0 129 C0 86.43 0 43.86 0 0 Z " fill="#777777" transform="translate(1809,1224)"/>
<path d="M0 0 C0.99 0.495 0.99 0.495 2 1 C-28.36 31.36 -58.72 61.72 -90 93 C-90.66 92.67 -91.32 92.34 -92 92 C-91.02733437 91.03066528 -91.02733437 91.03066528 -90.03501892 90.04174805 C-83.89802545 83.9248653 -77.76349566 77.80552451 -71.63165951 71.68347168 C-68.4798142 68.53682529 -65.32705383 65.3911077 -62.17211914 62.24755859 C-59.12244614 59.20882145 -56.07528563 56.16758496 -53.02978706 53.12466431 C-51.87257969 51.96929202 -50.71449862 50.81479407 -49.55549431 49.66122437 C-44.04853169 44.17903871 -38.60755094 38.69611821 -33.55604553 32.78411865 C-30.86822915 29.70234293 -27.97347351 26.8307071 -25.078125 23.9453125 C-24.13812653 23.00387894 -24.13812653 23.00387894 -23.17913818 22.04342651 C-21.86951303 20.73312724 -20.55864994 19.42406415 -19.24658203 18.11621094 C-17.23743174 16.11246555 -15.2337383 14.10337293 -13.23046875 12.09375 C-11.95084173 10.81478302 -10.67090496 9.53612586 -9.390625 8.2578125 C-8.49528046 7.35943161 -8.49528046 7.35943161 -7.58184814 6.44290161 C-5.14950502 4.02430426 -2.86293722 1.90862482 0 0 Z " fill="#2F2F2F" transform="translate(313,1221)"/>
<path d="M0 0 C-2.4751482 2.50400643 -4.95576894 5.00251906 -7.4375 7.5 C-8.49807617 8.57314453 -8.49807617 8.57314453 -9.58007812 9.66796875 C-10.25361328 10.34472656 -10.92714844 11.02148438 -11.62109375 11.71875 C-12.2442749 12.34716797 -12.86745605 12.97558594 -13.50952148 13.62304688 C-15 15 -15 15 -16 15 C-16.02705729 13.22925083 -16.04642195 11.45838289 -16.0625 9.6875 C-16.07410156 8.70136719 -16.08570313 7.71523437 -16.09765625 6.69921875 C-16 4 -16 4 -15 1 C-12.87630763 0.63807496 -10.7509887 0.28568253 -8.625 -0.0625 C-6.84996094 -0.35833984 -6.84996094 -0.35833984 -5.0390625 -0.66015625 C-2 -1 -2 -1 0 0 Z " fill="#F1F1F1" transform="translate(1825,1338)"/>
<path d="M0 0 C0.66 0.33 1.32 0.66 2 1 C-4.6 7.6 -11.2 14.2 -18 21 C-18 16.81116298 -15.67400903 15.0691572 -12.9375 12.1875 C-12.43887451 11.65286133 -11.94024902 11.11822266 -11.42651367 10.56738281 C-7.83096005 6.75766304 -4.0942029 3.27536232 0 0 Z " fill="#303030" transform="translate(1184,1293)"/>
<path d="M0 0 C0.66 0.33 1.32 0.66 2 1 C-2.62 5.62 -7.24 10.24 -12 15 C-12.66 14.67 -13.32 14.34 -14 14 C-9.67106815 8.81580806 -5.23435005 4.27293882 0 0 Z " fill="#313131" transform="translate(879,1294)"/>
<path d="M0 0 C0.66 0.66 1.32 1.32 2 2 C-1.3 5.63 -4.6 9.26 -8 13 C-8.66 12.67 -9.32 12.34 -10 12 C-6.7 8.04 -3.4 4.08 0 0 Z " fill="#4A3B5A" transform="translate(1012,376)"/>
<path d="M0 0 C0.66 0.66 1.32 1.32 2 2 C-1.3 5.63 -4.6 9.26 -8 13 C-8.66 12.67 -9.32 12.34 -10 12 C-6.7 8.04 -3.4 4.08 0 0 Z " fill="#4A3B5A" transform="translate(1348,360)"/>
<path d="M0 0 C0.66 0.33 1.32 0.66 2 1 C-0.97 3.97 -3.94 6.94 -7 10 C-7 5.69032084 -4.83274712 4.10253255 -2 1 C-1.34 0.67 -0.68 0.34 0 0 Z " fill="#2F2F2F" transform="translate(637,1283)"/>
<path d="M0 0 C0.66 0.33 1.32 0.66 2 1 C-0.97 3.97 -3.94 6.94 -7 10 C-7 5.69032084 -4.83274712 4.10253255 -2 1 C-1.34 0.67 -0.68 0.34 0 0 Z " fill="#323232" transform="translate(1352,1282)"/>
<path d="M0 0 C0.66 0.33 1.32 0.66 2 1 C-0.97 3.97 -3.94 6.94 -7 10 C-7 6.04435836 -5.59478606 4.89133304 -3 2 C-2.01 1.34 -1.02 0.68 0 0 Z " fill="#323232" transform="translate(539,1283)"/>
<path d="M0 0 C0.66 0.33 1.32 0.66 2 1 C-0.97 3.97 -3.94 6.94 -7 10 C-7 6.04435836 -5.59478606 4.89133304 -3 2 C-2.01 1.34 -1.02 0.68 0 0 Z " fill="#343434" transform="translate(1074,1208)"/>
<path d="M0 0 C0.66 0.66 1.32 1.32 2 2 C-0.97 4.97 -3.94 7.94 -7 11 C-7 7.22089522 -6.00296038 6.53893899 -3.5 3.8125 C-2.8503125 3.09707031 -2.200625 2.38164062 -1.53125 1.64453125 C-1.0259375 1.10183594 -0.520625 0.55914062 0 0 Z " fill="#4D3E5B" transform="translate(1319,395)"/>
<path d="M0 0 C0.66 0.33 1.32 0.66 2 1 C-1.33333333 4.33333333 -4.66666667 7.66666667 -8 11 C-6.60366572 6.55711819 -4.39598172 4.13475236 -1 1 C-0.67 0.67 -0.34 0.34 0 0 Z " fill="#383838" transform="translate(1770,1208)"/>
<path d="M0 0 C0.66 0.33 1.32 0.66 2 1 C-0.64 3.64 -3.28 6.28 -6 9 C-6 6 -6 6 -3.5625 3.375 C-2.716875 2.59125 -1.87125 1.8075 -1 1 C-0.67 0.67 -0.34 0.34 0 0 Z " fill="#303030" transform="translate(170,1222)"/>
<path d="M0 0 C0.33 0.99 0.66 1.98 1 3 C-0.65 4.65 -2.3 6.3 -4 8 C-4.66 7.67 -5.32 7.34 -6 7 C-4.02 4.69 -2.04 2.38 0 0 Z " fill="#4F3F5F" transform="translate(1106,263)"/>
<path d="" fill="#FFFF00" transform="translate(0,0)"/>
</svg>
